<?xml version="1.0" encoding="UTF-8"?><svg xmlns="http://www.w3.org/2000/svg" viewBox="0 0 148.03 146.97"><path d="M116.28,112.54c-23.11,23.78-60.15,23.84-83.51,1.15-12.8-12.43-17.99-29.41-15.99-47.64,3.41-31.05,33.6-54.24,64.43-49.96,21.12,2.93,38.69,16.75,46.22,35.4,8.56,21.19,4.26,45.19-11.15,61.05ZM116.36,108.42c19.84-23.28,15.68-58.86-7.6-77.6s-57.31-15.86-77.13,7.55c-19.03,22.48-16.35,58.21,6.95,76.9,23.38,18.75,58,16.35,77.78-6.85Z"/><path d="M35.66,145.26c-11.87,3.15-23.27.87-35.13,1.34-.49-5.16-1.03-31.55.37-33.03.34-.36,1.98-.28,1.99.27l.43,29.18c10.86,2.53,21.69-1.88,32.35,2.25Z"/><path d="M2.91,32.98c0,.76-2.19.67-2.37.08-.22-.7-.47-2.02-.46-2.83L.29.09c12.11.93,23.39-1.39,35.4,1.15C24.88,5.45,14.1.75,3.09,3.79l-.18,29.19Z"/><path d="M145.19,33.72l-.15-30.05c-10.88-2.81-21.83,1.73-32.62-2.41,12.02-2.54,23.33-.31,35.43-1.12l.16,32.09c-.25.66-1.85,1.47-2.81,1.5Z"/><path d="M144.09,146.69c-10.47-1.22-21.03,1.68-31.59-1.54,10.73-3.79,21.51.19,32.44-2.07l.26-29.92c.9,0,2.54.85,2.77,1.52l.06,28.06c0,1.88-1.25,4.26-3.94,3.95Z"/><path d="M94.52,86.51c-3.73,13.7-37.38,14.06-40.84,0,17.22,11.06,23.28,11.08,40.84,0Z"/><path d="M56.15,58.38c1.84-.6,4.51,1.79,4.72,3.54.28,2.25-.53,4.97-3.35,4.93-2.47-.03-4.58-.4-5.27-2.93s.69-4.49,3.89-5.55Z"/><path d="M91.17,58.18c1.74-.37,3.83,2.32,4.52,3.75,1.06,2.2-1.54,4.93-3.57,4.91-1.58-.01-4.94-.22-4.87-3,.06-2.48.25-4.87,3.92-5.66Z"/></svg>
